<svg width="512" height="512" viewBox="0 0 512 512" xmlns="http://www.w3.org/2000/svg" role="img">
  <title>Proyecto Severo (maskable)</title>
  <desc>Versión maskable para PWAs: fondo completo y contenido dentro del área segura del 80%</desc>

  <rect width="512" height="512" fill="#0D47A1"/>

  <g stroke="#FFFFFF" stroke-width="2.2" opacity="0.32" fill="none" stroke-linecap="round">
    <line x1="185" y1="145" x2="260" y2="155"/>
    <line x1="260" y1="155" x2="200" y2="195"/>
    <line x1="200" y1="195" x2="285" y2="210"/>
    <line x1="285" y1="210" x2="220" y2="245"/>
    <line x1="220" y1="245" x2="300" y2="260"/>
    <line x1="300" y1="260" x2="230" y2="295"/>
    <line x1="230" y1="295" x2="315" y2="315"/>
    <line x1="315" y1="315" x2="255" y2="345"/>
    <line x1="255" y1="345" x2="215" y2="370"/>
  </g>

  <g fill="#FFFFFF">
    <circle cx="185" cy="145" r="9"/>
    <circle cx="260" cy="155" r="9"/>
    <circle cx="200" cy="195" r="9"/>
    <circle cx="285" cy="210" r="8"/>
    <circle cx="220" cy="245" r="8"/>
    <circle cx="230" cy="295" r="8"/>
    <circle cx="315" cy="315" r="9"/>
    <circle cx="255" cy="345" r="8"/>
    <circle cx="215" cy="370" r="9"/>
  </g>

  <circle cx="300" cy="260" r="24" fill="#FFC845"/>
  <circle cx="300" cy="260" r="9" fill="#0D47A1"/>
</svg>
