<svg width="512" height="512" viewBox="0 0 512 512" xmlns="http://www.w3.org/2000/svg" role="img">
  <title>Proyecto Severo (monocromo)</title>
  <desc>Versión monocromática: trazos blancos sobre fondo transparente</desc>

  <g stroke="#FFFFFF" stroke-width="2.4" opacity="0.5" fill="none" stroke-linecap="round">
    <line x1="180" y1="115" x2="270" y2="130"/>
    <line x1="270" y1="130" x2="200" y2="175"/>
    <line x1="200" y1="175" x2="290" y2="195"/>
    <line x1="290" y1="195" x2="215" y2="240"/>
    <line x1="215" y1="240" x2="310" y2="260"/>
    <line x1="310" y1="260" x2="225" y2="295"/>
    <line x1="225" y1="295" x2="325" y2="320"/>
    <line x1="325" y1="320" x2="260" y2="365"/>
    <line x1="260" y1="365" x2="210" y2="405"/>
  </g>

  <g fill="#FFFFFF">
    <circle cx="180" cy="115" r="10"/>
    <circle cx="270" cy="130" r="10"/>
    <circle cx="200" cy="175" r="10"/>
    <circle cx="290" cy="195" r="9"/>
    <circle cx="215" cy="240" r="9"/>
    <circle cx="225" cy="295" r="9"/>
    <circle cx="325" cy="320" r="10"/>
    <circle cx="260" cy="365" r="9"/>
    <circle cx="210" cy="405" r="10"/>
    <circle cx="310" cy="260" r="20"/>
  </g>
  <circle cx="310" cy="260" r="8" fill="none" stroke="#FFFFFF" stroke-width="0" opacity="0"/>
</svg>
