<svg width="640" height="160" viewBox="0 0 640 160" xmlns="http://www.w3.org/2000/svg" role="img">
  <title>Proyecto Severo - Logo horizontal</title>
  <desc>Lockup horizontal: ícono más tipografía Proyecto Severo / Relevamientos</desc>

  <!-- ÍCONO 120x120 -->
  <g transform="translate(20, 20)">
    <rect width="120" height="120" rx="27" fill="#0D47A1"/>
    <g stroke="#FFFFFF" stroke-width="0.85" opacity="0.32" fill="none" stroke-linecap="round">
      <line x1="42" y1="27" x2="63" y2="30"/>
      <line x1="63" y1="30" x2="47" y2="41"/>
      <line x1="47" y1="41" x2="68" y2="46"/>
      <line x1="68" y1="46" x2="50" y2="56"/>
      <line x1="50" y1="56" x2="73" y2="61"/>
      <line x1="73" y1="61" x2="53" y2="69"/>
      <line x1="53" y1="69" x2="76" y2="75"/>
      <line x1="76" y1="75" x2="61" y2="86"/>
      <line x1="61" y1="86" x2="49" y2="95"/>
    </g>
    <g fill="#FFFFFF">
      <circle cx="42" cy="27" r="2.4"/>
      <circle cx="63" cy="30" r="2.4"/>
      <circle cx="47" cy="41" r="2.4"/>
      <circle cx="68" cy="46" r="2.1"/>
      <circle cx="50" cy="56" r="2.1"/>
      <circle cx="53" cy="69" r="2.1"/>
      <circle cx="76" cy="75" r="2.4"/>
      <circle cx="61" cy="86" r="2.1"/>
      <circle cx="49" cy="95" r="2.4"/>
    </g>
    <circle cx="73" cy="61" r="6.3" fill="#FFC845"/>
    <circle cx="73" cy="61" r="2.4" fill="#0D47A1"/>
  </g>

  <!-- WORDMARK -->
  <text x="165" y="78" font-family="-apple-system, BlinkMacSystemFont, 'Segoe UI', Roboto, sans-serif" font-size="44" font-weight="500" fill="#0D47A1" letter-spacing="-0.8">Proyecto Severo</text>
  <text x="167" y="106" font-family="-apple-system, BlinkMacSystemFont, 'Segoe UI', Roboto, sans-serif" font-size="15" font-weight="500" fill="#1565C0" letter-spacing="4">RELEVAMIENTOS</text>
</svg>
